# xmcd
#
# Track frame offsets:
# 150
# 18062
# 33030
# 45825
# 69157
# 87070
# 105805
# 134082
# 152747
# 170640
# 185922
# 205697
# 225945
# 245650
# 264037
#
# Disc length: 3761 seconds
#
#
# Revision: 0
# Processed by: cddbd v1.5.1PL0 Copyright (c) Steve Scherf et al.
# Submitted via: FreeRIP 2.942 
#
DISCID=aa0eaf0f
DTITLE=Various Artist - Bundaberg Rum Bull Riding Songs [Disc Two - Rock]
DYEAR=2000
DGENRE=Rock
TTITLE0=Jimmy Barnes - No Second Prize
TTITLE1=The Angels - Comin' Down
TTITLE2=Pat Benatar - Hit Me With Your Best Shot
TTITLE3=Europe - The Final Countdown
TTITLE4=Angry Anderson - Bound For Glory
TTITLE5=Billy Thorpe - Most People I Know
TTITLE6=Argent - Hold Your Head Up
TTITLE7=The Party Boys - He's Gonna Step On You Again
TTITLE8=Matt Taylor - I Remember When I Was Young
TTITLE9=Noiseworks - Hot Chilli Woman
TTITLE10=Joe Satriani - Surfing With The Alien
TTITLE11=Alice Cooper - Poison
TTITLE12=Mark Williams - Show No Mercy
TTITLE13=C&C Music Factory - Gonna Make You Sweat (Everybody Dance Now)
TTITLE14=Little River Band - Help Is On It's Way
EXTD=
EXTT0=
EXTT1=
EXTT2=
EXTT3=
EXTT4=
EXTT5=
EXTT6=
EXTT7=
EXTT8=
EXTT9=
EXTT10=
EXTT11=
EXTT12=
EXTT13=
EXTT14=
PLAYORDER=
